<svg width="491.52" height="491.52" xmlns="http://www.w3.org/2000/svg">

 <g>
  <title>background</title>
  <rect fill="none" id="canvas_background" height="402" width="582" y="-1" x="-1"/>
 </g>
 <g>
  <title>Layer 1</title>
  <path id="svg_3" d="m460.8,230.545l0,-15.505c0,-118.575 -96.47,-215.04 -215.04,-215.04s-215.04,96.465 -215.04,215.04l0,15.505c-18.612,14.027 -30.72,36.244 -30.72,61.295c0,42.35 34.45,76.8 76.8,76.8l15.36,0l0,-153.6l-15.36,0c-8.986,0 -17.579,1.631 -25.6,4.48l0,-4.48c0,-107.28 87.28,-194.56 194.56,-194.56s194.56,87.28 194.56,194.56l0,4.48c-8.021,-2.849 -16.614,-4.48 -25.6,-4.48l-15.36,0l0,153.6l15.36,0c5.259,0 10.396,-0.536 15.36,-1.548l0,62.988c0,11.295 -9.19,20.48 -20.48,20.48l-114.527,0c-4.241,-11.894 -15.501,-20.48 -28.833,-20.48l-30.72,0c-16.94,0 -30.72,13.78 -30.72,30.72s13.78,30.72 30.72,30.72l30.72,0c13.332,0 24.593,-8.586 28.833,-20.48l114.527,0c22.59,0 40.96,-18.375 40.96,-40.96l0,-70.366c24.332,-12.9 40.96,-38.467 40.96,-67.874c0,-25.051 -12.108,-47.268 -30.72,-61.295zm-389.12,5.205l0,112.18c-28.67,-2.595 -51.2,-26.76 -51.2,-56.09c0,-29.33 22.53,-53.495 51.2,-56.09zm194.56,235.29l-30.72,0c-5.65,0 -10.24,-4.595 -10.24,-10.24c0,-5.645 4.59,-10.24 10.24,-10.24l30.72,0c5.65,0 10.24,4.595 10.24,10.24c0,5.645 -4.59,10.24 -10.24,10.24zm153.6,-123.11l0,-112.18c28.67,2.595 51.2,26.76 51.2,56.09c0,29.33 -22.53,53.495 -51.2,56.09z"/>
  <path fill="#aa56ff" id="svg_6" d="m122.88,143.36l0,163.84l20.52,0l0,37.9l68.09,-37.9l157.19,0l0,-163.84l-245.8,0zm225.32,143.36l-142.03,0l-42.29,23.54l0,-23.54l-20.52,0l0,-122.88l204.84,0l0,122.88z"/>
  <rect fill="#aa56ff" id="svg_9" height="20.48" width="163.84" y="194.56" x="163.94"/>
  <rect fill="#aa56ff" id="svg_12" height="20.48" width="102.4" y="235.52" x="194.66"/>
 </g>
</svg>