<svg width="682" height="682" xmlns="http://www.w3.org/2000/svg">

 <g>
  <title>background</title>
  <rect fill="none" id="canvas_background" height="402" width="582" y="-1" x="-1"/>
 </g>
 <g>
  <title>Layer 1</title>
  <path fill="#7f00ff" id="svg_3" d="m264.171,248.532818c0,4.177 -3.666,8.172 -8.172,8.172s-8.172,-3.994 -8.172,-8.172l-15.667,0c0,13.578 10.694,23.838 23.838,23.838s23.838,-10.261 23.838,-23.838l-15.665,0z"/>
  <path id="svg_6" d="m359.11,416.139l-55.334,0l0,-22.524c24.102,-15.683 40.083,-42.84 40.083,-73.676l0,-96.031l0,-0.44c13.543,-1.874 24.008,-13.519 24.008,-27.57s-10.464,-25.696 -24.008,-27.57l0,-40.453c0,-30.836 -15.981,-57.993 -40.083,-73.676l0,-6.35c0,-26.385 -21.553,-47.849 -48.044,-47.849s-48.044,21.464 -48.044,47.847l0,6.693c-23.805,15.735 -39.548,42.724 -39.548,73.333l0,8.95c-18.232,3.649 -32.01,19.778 -32.01,39.066l0,8.156l-7.819,0l0,15.667l7.819,0l0,8.188l0,80.026c0,25.125 14.592,46.898 35.741,57.314c6.053,20.086 19.115,37.151 36.333,48.361l-0.037,22.537l-55.277,0c-22.479,0 -40.767,18.288 -40.767,40.768l0,55.094l15.667,0l0,-55.094c0,-13.84 11.26,-25.101 25.1,-25.101l55.265,0l0,12.607l40.269,24.161l0,19.406l15.667,0l0,-19.712l39.758,-23.855l0,-12.606l55.265,0c13.84,0 25.1,11.26 25.1,25.101l0,55.094l15.667,0l0,-55.094c-0.004,-22.48 -18.292,-40.768 -40.771,-40.768zm-15.251,-218.729l0,-13.059c4.839,1.611 8.341,6.173 8.341,11.545s-3.503,9.936 -8.341,11.546l0,-10.032zm-192.064,-21.519c0,-10.59 6.847,-19.605 16.343,-22.867l0,6.862l0,70.883c-9.497,-3.263 -16.343,-12.277 -16.343,-22.867l0,-32.011zm0,112.036l0,-48.386c4.73,3.623 10.29,6.214 16.343,7.426l0,72.971c0,1.409 0.041,2.81 0.107,4.203c-10.073,-8.838 -16.45,-21.791 -16.45,-36.214zm137.666,-223.99c23,12.084 38.731,36.201 38.731,63.938l0,39.15c-6.119,-4.38 -13.605,-6.97 -21.689,-6.97c-36.397,0 -68.069,-25.754 -73.671,-59.906c-2.396,-14.604 -0.485,-29.18 5.504,-42.273c5.655,-1.428 11.57,-2.193 17.663,-2.193c11.532,0 22.431,2.732 32.11,7.561l0,0.694l1.352,0l0,-0.001zm-33.729,-48.269c17.263,0 31.411,13.497 32.329,30.431c-9.94,-3.911 -20.749,-6.084 -32.061,-6.084c-11.519,0 -22.516,2.251 -32.605,6.299c0.807,-17.035 15.001,-30.646 32.337,-30.646zm-36.816,50.293c-2.536,9.885 -3.33,20.196 -2.332,30.578c-11.842,1.576 -22.517,6.871 -30.817,14.677c4.543,-19.153 16.723,-35.379 33.149,-45.255zm-28.019,285.161c2.969,0.425 5.999,0.657 9.083,0.657l17.503,0c3.248,9.307 12.109,16.005 22.51,16.005c7.198,0 13.656,-3.212 18.031,-8.272l13.98,0c22.096,0 40.079,-17.766 40.128,-39.622c0,-0.015 0,-0.029 0,-0.044s0,-0.029 0,-0.044c-0.048,-21.881 -18.031,-39.668 -40.128,-39.668l-32.01,0c-21.841,0 -39.612,17.86 -39.618,39.813c0,0.001 0,0.003 0,0.005c0,0.002 0,0.003 0,0.005c0.001,5.725 1.145,11.184 3.317,16.154l-3.713,0c-5.174,0 -10.156,-0.829 -14.831,-2.346c-0.872,-4.479 -1.343,-9.099 -1.343,-13.829l0,-160.05l0,-8.003c0,-20.629 15.628,-37.669 35.665,-39.922c4.805,16.869 14.876,32.041 29.017,43.407c16.33,13.124 36.934,20.353 58.017,20.353c11.959,0 21.689,9.729 21.689,21.689l0,26.497l0,96.031c0,39.807 -32.386,72.193 -72.193,72.193c-28.648,0 -53.447,-16.771 -65.104,-41.009zm49.096,-31.016c-8.876,0 -16.628,4.88 -20.731,12.093c-2.101,-3.613 -3.219,-7.793 -3.22,-12.247c0.003,-13.318 10.746,-24.152 23.951,-24.152l32.01,0c13.472,0 24.436,10.783 24.461,24.045c-0.024,13.237 -10.989,23.999 -24.461,23.999l-8.174,0l0,0.001c-0.054,-13.098 -10.725,-23.739 -23.836,-23.739zm8.173,23.84c0,4.506 -3.666,8.172 -8.172,8.172c-4.506,0 -8.172,-3.666 -8.172,-8.172c0,-4.506 3.666,-8.172 8.172,-8.172c4.506,0 8.172,3.666 8.172,8.172zm7.833,110.904l-32.18,-19.308l0.037,-33.861c9.963,3.931 20.8,6.116 32.144,6.116c11.331,0 22.157,-2.18 32.11,-6.104l0.069,33.848l-32.18,19.309z"/>
  <rect id="svg_9" height="24.022" width="15.667" y="487.976" x="159.642"/>
  <rect id="svg_12" height="24.022" width="15.667" y="487.976" x="336.153"/>
  <rect fill="#7f00ff" id="svg_15" height="32.378" width="15.667" y="175.687" x="207.686"/>
  <rect fill="#7f00ff" id="svg_18" height="32.378" width="15.667" y="175.687" x="288.108"/>
  <rect fill="#7f00ff" id="svg_21" height="15.667" width="32.378" y="135.998" x="192.02"/>
  <path fill="#7f00ff" id="svg_24" d="m264.087,72.025l0,15.667c17.756,0 32.095,14.888 32.095,32.643l15.667,0c-0.001,-27.156 -21.651,-48.31 -47.762,-48.31z"/>
  <rect id="svg_27" height="15.667" width="15.667" y="496.331" x="248.419"/>
  <rect id="svg_30" height="15.667" width="32.378" y="487.976" x="288.108"/>
 </g>
</svg>