<svg width="124" height="164" viewBox="0 0 124 164" fill="none" xmlns="http://www.w3.org/2000/svg">
<mask id="path-1-inside-1_197_797" fill="white">
<path fill-rule="evenodd" clip-rule="evenodd" d="M73.5468 80.0673C72.4929 80.0673 63.5833 75.5645 61.9546 74.7981L51.4163 79.8757C49.8834 80.6421 48.0632 79.3008 48.2548 77.5764L49.8834 65.9842L41.7402 57.4578C40.5906 56.2123 41.2612 54.1047 42.9856 53.8173L54.482 51.7096L60.0385 41.3629C60.9008 39.83 63.1042 39.83 63.8707 41.3629L69.4272 51.7096L81.0194 53.8173C82.7438 54.1047 83.4145 56.2123 82.2648 57.4578L74.1216 65.9842L75.6544 77.5764C75.846 78.9176 74.7922 80.0673 73.5468 80.0673ZM27.3698 163.416C26.4117 163.416 25.5495 162.841 25.2621 161.979L19.5139 144.159L3.32324 154.123C1.50299 155.273 -0.604674 153.452 0.161749 151.44L23.1544 94.6293L11.1791 91.2762C10.0294 90.893 9.35883 89.7433 9.64623 88.5937L13.5742 73.1695L2.46102 61.6731C1.59879 60.8109 1.59879 59.4696 2.46102 58.6074L13.5742 47.2069L9.64623 31.6868C9.35883 30.5372 10.0294 29.3875 11.1791 29.1001L26.5075 24.6932L30.9145 9.36473C31.2019 8.2151 32.3515 7.54448 33.5012 7.83189L49.0212 11.7598L60.5176 0.646669C61.284 -0.215556 62.6252 -0.215556 63.4875 0.646669L74.9838 11.7598L90.4081 7.83189C91.5577 7.54448 92.8031 8.2151 93.0905 9.36473L97.4017 24.6932L112.826 29.1001C113.976 29.3875 114.646 30.5372 114.359 31.6868L110.431 47.2069L121.544 58.6074C122.406 59.4696 122.406 60.8109 121.544 61.6731L110.431 73.1695L114.359 88.5937C114.646 89.7433 113.976 90.893 112.826 91.2762L100.755 94.6293L123.843 151.44C124.61 153.452 122.406 155.273 120.682 154.123L104.491 144.159L98.7429 161.979C98.0723 163.895 95.3898 163.991 94.6234 162.075L73.5468 109.958L63.4875 119.73C62.6252 120.496 61.284 120.496 60.4218 119.73L50.4583 109.958L29.3816 162.075C28.9984 162.937 28.232 163.416 27.3698 163.416ZM26.9866 96.9286L6.67635 146.938L19.6097 139.082C20.7594 138.315 22.388 138.89 22.7712 140.231L27.5614 154.889L46.0513 109.287L33.5012 112.449C32.3515 112.736 31.2019 112.065 30.9145 111.012L26.9866 96.9286ZM73.6426 104.114C74.1216 103.922 74.5048 103.922 74.888 104.018L89.45 107.754L93.5696 93.1923C93.7612 92.5216 94.336 91.9468 95.1024 91.7552L109.569 87.6357L105.832 73.0736C105.737 72.3072 105.928 71.445 106.407 70.966L116.945 60.1403L106.407 49.4103C105.928 48.8355 105.737 47.9733 105.832 47.3027L109.569 32.6448L95.1024 28.6211C94.336 28.3337 93.7612 27.7589 93.5696 27.0883L89.45 12.5262L74.888 16.2625C74.1216 16.4541 73.3552 16.2625 72.7803 15.6877L61.9546 5.24521C60.4218 6.77805 51.4163 15.8793 50.2667 16.2625C49.8834 16.3583 49.5002 16.3583 49.117 16.2625L34.555 12.5262L30.4355 27.0883C30.2439 27.7589 29.669 28.3337 28.9026 28.6211L14.4364 32.6448L18.0769 47.3027C18.2685 47.9733 18.0769 48.8355 17.5021 49.4103L7.05956 60.1403L17.5021 70.966C18.0769 71.445 18.2685 72.3072 18.0769 73.0736L14.4364 87.6357L28.9026 91.7552C29.669 91.9468 30.2439 92.5216 30.4355 93.1923L34.555 107.754L49.596 104.018C50.1709 104.018 50.7457 104.21 51.2247 104.593L61.9546 115.131C63.5833 113.598 72.5887 104.401 73.6426 104.114ZM77.9537 109.287L96.4436 154.889L101.138 140.231C101.617 138.89 103.15 138.315 104.395 139.082L117.329 146.938L97.0185 96.9286L93.0905 111.012C92.8031 112.065 91.5577 112.736 90.4081 112.449L77.9537 109.287ZM61.9546 95.9705C42.2192 95.9705 26.1243 79.8757 26.1243 60.1403C26.1243 40.4049 42.2192 24.31 61.9546 24.31C81.7858 24.31 97.7849 40.4049 97.7849 60.1403C97.7849 79.8757 81.7858 95.9705 61.9546 95.9705ZM61.9546 28.6211C44.6143 28.6211 30.5313 42.7999 30.5313 60.1403C30.5313 77.4806 44.6143 91.6594 61.9546 91.6594C79.3907 91.6594 93.4738 77.4806 93.4738 60.1403C93.4738 42.7999 79.3907 28.6211 61.9546 28.6211ZM61.9546 70.1996C63.0084 70.1996 69.4272 73.5527 70.8643 74.2233L69.6188 65.5052C69.523 64.8346 69.8104 64.164 70.1937 63.685L76.2292 57.362L67.7028 55.8291C67.0322 55.7333 66.4573 55.2543 66.1699 54.6795L61.9546 47.0153L57.8351 54.6795C57.5477 55.2543 56.9729 55.7333 56.3022 55.8291L47.68 57.362L53.7156 63.685C54.1946 64.164 54.3862 64.8346 54.2904 65.5052L53.1407 74.2233C54.482 73.5527 60.9966 70.1996 61.9546 70.1996Z"/>
</mask>
<path fill-rule="evenodd" clip-rule="evenodd" d="M73.5468 80.0673C72.4929 80.0673 63.5833 75.5645 61.9546 74.7981L51.4163 79.8757C49.8834 80.6421 48.0632 79.3008 48.2548 77.5764L49.8834 65.9842L41.7402 57.4578C40.5906 56.2123 41.2612 54.1047 42.9856 53.8173L54.482 51.7096L60.0385 41.3629C60.9008 39.83 63.1042 39.83 63.8707 41.3629L69.4272 51.7096L81.0194 53.8173C82.7438 54.1047 83.4145 56.2123 82.2648 57.4578L74.1216 65.9842L75.6544 77.5764C75.846 78.9176 74.7922 80.0673 73.5468 80.0673ZM27.3698 163.416C26.4117 163.416 25.5495 162.841 25.2621 161.979L19.5139 144.159L3.32324 154.123C1.50299 155.273 -0.604674 153.452 0.161749 151.44L23.1544 94.6293L11.1791 91.2762C10.0294 90.893 9.35883 89.7433 9.64623 88.5937L13.5742 73.1695L2.46102 61.6731C1.59879 60.8109 1.59879 59.4696 2.46102 58.6074L13.5742 47.2069L9.64623 31.6868C9.35883 30.5372 10.0294 29.3875 11.1791 29.1001L26.5075 24.6932L30.9145 9.36473C31.2019 8.2151 32.3515 7.54448 33.5012 7.83189L49.0212 11.7598L60.5176 0.646669C61.284 -0.215556 62.6252 -0.215556 63.4875 0.646669L74.9838 11.7598L90.4081 7.83189C91.5577 7.54448 92.8031 8.2151 93.0905 9.36473L97.4017 24.6932L112.826 29.1001C113.976 29.3875 114.646 30.5372 114.359 31.6868L110.431 47.2069L121.544 58.6074C122.406 59.4696 122.406 60.8109 121.544 61.6731L110.431 73.1695L114.359 88.5937C114.646 89.7433 113.976 90.893 112.826 91.2762L100.755 94.6293L123.843 151.44C124.61 153.452 122.406 155.273 120.682 154.123L104.491 144.159L98.7429 161.979C98.0723 163.895 95.3898 163.991 94.6234 162.075L73.5468 109.958L63.4875 119.73C62.6252 120.496 61.284 120.496 60.4218 119.73L50.4583 109.958L29.3816 162.075C28.9984 162.937 28.232 163.416 27.3698 163.416ZM26.9866 96.9286L6.67635 146.938L19.6097 139.082C20.7594 138.315 22.388 138.89 22.7712 140.231L27.5614 154.889L46.0513 109.287L33.5012 112.449C32.3515 112.736 31.2019 112.065 30.9145 111.012L26.9866 96.9286ZM73.6426 104.114C74.1216 103.922 74.5048 103.922 74.888 104.018L89.45 107.754L93.5696 93.1923C93.7612 92.5216 94.336 91.9468 95.1024 91.7552L109.569 87.6357L105.832 73.0736C105.737 72.3072 105.928 71.445 106.407 70.966L116.945 60.1403L106.407 49.4103C105.928 48.8355 105.737 47.9733 105.832 47.3027L109.569 32.6448L95.1024 28.6211C94.336 28.3337 93.7612 27.7589 93.5696 27.0883L89.45 12.5262L74.888 16.2625C74.1216 16.4541 73.3552 16.2625 72.7803 15.6877L61.9546 5.24521C60.4218 6.77805 51.4163 15.8793 50.2667 16.2625C49.8834 16.3583 49.5002 16.3583 49.117 16.2625L34.555 12.5262L30.4355 27.0883C30.2439 27.7589 29.669 28.3337 28.9026 28.6211L14.4364 32.6448L18.0769 47.3027C18.2685 47.9733 18.0769 48.8355 17.5021 49.4103L7.05956 60.1403L17.5021 70.966C18.0769 71.445 18.2685 72.3072 18.0769 73.0736L14.4364 87.6357L28.9026 91.7552C29.669 91.9468 30.2439 92.5216 30.4355 93.1923L34.555 107.754L49.596 104.018C50.1709 104.018 50.7457 104.21 51.2247 104.593L61.9546 115.131C63.5833 113.598 72.5887 104.401 73.6426 104.114ZM77.9537 109.287L96.4436 154.889L101.138 140.231C101.617 138.89 103.15 138.315 104.395 139.082L117.329 146.938L97.0185 96.9286L93.0905 111.012C92.8031 112.065 91.5577 112.736 90.4081 112.449L77.9537 109.287ZM61.9546 95.9705C42.2192 95.9705 26.1243 79.8757 26.1243 60.1403C26.1243 40.4049 42.2192 24.31 61.9546 24.31C81.7858 24.31 97.7849 40.4049 97.7849 60.1403C97.7849 79.8757 81.7858 95.9705 61.9546 95.9705ZM61.9546 28.6211C44.6143 28.6211 30.5313 42.7999 30.5313 60.1403C30.5313 77.4806 44.6143 91.6594 61.9546 91.6594C79.3907 91.6594 93.4738 77.4806 93.4738 60.1403C93.4738 42.7999 79.3907 28.6211 61.9546 28.6211ZM61.9546 70.1996C63.0084 70.1996 69.4272 73.5527 70.8643 74.2233L69.6188 65.5052C69.523 64.8346 69.8104 64.164 70.1937 63.685L76.2292 57.362L67.7028 55.8291C67.0322 55.7333 66.4573 55.2543 66.1699 54.6795L61.9546 47.0153L57.8351 54.6795C57.5477 55.2543 56.9729 55.7333 56.3022 55.8291L47.68 57.362L53.7156 63.685C54.1946 64.164 54.3862 64.8346 54.2904 65.5052L53.1407 74.2233C54.482 73.5527 60.9966 70.1996 61.9546 70.1996Z" fill="#8624E1" stroke="#8624E1" stroke-width="100" mask="url(#path-1-inside-1_197_797)"/>
<path d="M60.4774 45.7779C61.0761 43.9353 63.6829 43.9353 64.2816 45.7779L66.9723 54.059C67.2401 54.8831 68.008 55.441 68.8744 55.441L77.5817 55.441C79.5191 55.441 80.3247 57.9202 78.7573 59.059L71.7129 64.177C71.012 64.6863 70.7187 65.5891 70.9864 66.4131L73.6771 74.6942C74.2758 76.5368 72.1668 78.0691 70.5994 76.9303L63.5551 71.8123C62.8541 71.303 61.9049 71.303 61.2039 71.8123L54.1596 76.9303C52.5922 78.0691 50.4832 76.5368 51.0819 74.6942L53.7726 66.4131C54.0404 65.5891 53.7471 64.6863 53.0461 64.177L46.0018 59.059C44.4343 57.9202 45.2399 55.441 47.1773 55.441L55.8846 55.441C56.751 55.441 57.519 54.8831 57.7867 54.059L60.4774 45.7779Z" fill="#8624E1"/>
</svg>
